<svg width="182" height="40" viewBox="0 0 182 40" fill="none" xmlns="http://www.w3.org/2000/svg">
<path d="M79.5447 11.7014C78.4608 11.9317 76.867 13.0704 74.7631 15.1176H74.6196C72.8026 12.1034 70.1267 10.9647 66.5918 11.7014C65.7716 11.8807 65.0129 12.2729 64.3923 12.8384C64.2435 12.9606 63.9885 13.205 63.6219 13.5716C63.4234 13.7802 63.2065 13.9705 62.9738 14.14C62.971 13.6054 62.7585 13.0932 62.3819 12.7136C62.0053 12.334 61.4948 12.1175 60.9602 12.1105H58.6012C58.0629 12.1119 57.547 12.326 57.1658 12.7062C56.7847 13.0863 56.5692 13.6017 56.5664 14.14V29.3296C56.5657 29.7151 56.6413 30.097 56.7888 30.4532C56.9364 30.8093 57.1529 31.1328 57.426 31.4049C57.6991 31.677 58.0234 31.8924 58.3801 32.0387C58.7368 32.1849 59.1189 32.2591 59.5044 32.257H59.9507C60.7291 32.257 61.4759 31.9493 62.0283 31.4009C62.5806 30.8525 62.8938 30.1079 62.8994 29.3296V20.4039C62.8876 19.4681 63.2379 18.564 63.877 17.8803C64.1773 17.5315 64.5478 17.2499 64.9643 17.054C65.3809 16.8581 65.8341 16.7522 66.2943 16.7434C66.7652 16.7276 67.2344 16.8071 67.6738 16.977C68.1133 17.1469 68.5139 17.4037 68.8517 17.7321C69.1895 18.0605 69.4576 18.4537 69.6398 18.8882C69.8221 19.3226 69.9148 19.7894 69.9124 20.2605V29.3296C69.9208 30.1071 70.2348 30.85 70.7866 31.3978C71.3383 31.9456 72.0835 32.2543 72.8611 32.257H73.4508C73.8358 32.2591 74.2174 32.1848 74.5735 32.0385C74.9297 31.8921 75.2532 31.6766 75.5255 31.4043C75.7977 31.132 76.0133 30.8085 76.1597 30.4524C76.306 30.0962 76.3803 29.7146 76.3782 29.3296V20.4039C76.3692 19.4686 76.719 18.5655 77.3558 17.8803C77.6569 17.5311 78.0283 17.2493 78.4458 17.0533C78.8633 16.8574 79.3174 16.7518 79.7784 16.7434C80.2493 16.7306 80.718 16.812 81.157 16.9828C81.596 17.1536 81.9964 17.4103 82.3349 17.7379C82.6734 18.0655 82.9431 18.4573 83.1281 18.8905C83.3131 19.3237 83.4098 19.7895 83.4125 20.2605V29.3296C83.408 29.7143 83.4809 30.096 83.6269 30.452C83.773 30.808 83.9891 31.1309 84.2625 31.4016C84.5323 31.6781 84.8557 31.8966 85.2129 32.0437C85.5701 32.1908 85.9536 32.2634 86.3399 32.257H86.3983C86.7838 32.2636 87.1665 32.1911 87.5229 32.044C87.8793 31.8968 88.2017 31.6782 88.4703 31.4016C88.7454 31.1319 88.963 30.8093 89.11 30.4531C89.2571 30.097 89.3304 29.7148 89.3257 29.3296V21.9341C89.3257 18.7463 88.527 16.1643 86.9296 14.1879C85.1126 11.8785 82.6509 11.0497 79.5447 11.7014Z" fill="#FF0000"/>
<path d="M109.293 12.3206H107.63C107.005 12.3234 106.406 12.5728 105.965 13.0146C105.523 13.4563 105.273 14.0547 105.271 14.6795C104.389 12.6748 102.809 11.6724 100.532 11.6724C99.2335 11.6587 97.9471 11.9195 96.7568 12.4377C95.5665 12.956 94.4992 13.7199 93.6248 14.6795C92.6895 15.643 91.9543 16.7824 91.4619 18.0317C90.9695 19.281 90.7295 20.6155 90.7559 21.9581C90.7306 23.2974 90.9711 24.6284 91.4636 25.8742C91.956 27.1199 92.6906 28.2556 93.6248 29.2156C94.4981 30.1769 95.5651 30.9424 96.7555 31.4616C97.946 31.9808 99.2329 32.242 100.532 32.228C101.3 32.228 102.405 31.7604 103.847 30.8254C104.187 30.5963 104.599 30.5016 105.005 30.5597C105.41 30.6091 105.785 30.7967 106.068 31.091C106.758 31.8401 107.306 32.212 107.715 32.212H110.398C110.568 32.2127 110.737 32.1786 110.894 32.112C111.051 32.0453 111.193 31.9474 111.311 31.8242C111.438 31.7085 111.538 31.5671 111.605 31.4094C111.672 31.2518 111.704 31.0816 111.699 30.9104V14.7007C111.694 14.0675 111.438 13.4622 110.988 13.0164C110.539 12.5706 109.931 12.3205 109.298 12.3206H109.293ZM105.271 23.9345C105.228 25.6134 104.52 26.6902 103.146 27.1648C102.478 27.392 101.766 27.4558 101.068 27.3507C100.479 27.3441 99.9003 27.1958 99.3806 26.9184C98.8609 26.641 98.4156 26.2426 98.0823 25.7569C97.2537 24.6205 96.8241 23.2419 96.8604 21.836V21.5916C96.8408 20.6555 97.022 19.7262 97.3917 18.866C97.6895 18.1172 98.2428 17.4979 98.9537 17.1181C99.5769 16.7916 100.264 16.6045 100.966 16.5697C101.669 16.5348 102.371 16.653 103.023 16.9162C104.203 17.3731 104.947 18.0266 105.26 18.866L105.271 23.9345Z" fill="#FF0000"/>
<path d="M125.618 11.4297H122.589L120.884 12.6304C120.343 13.0321 119.887 13.5357 119.54 14.1127C118.605 12.7455 117.554 12.0619 116.389 12.0619H116.288C115.876 12.0612 115.467 12.1424 115.086 12.3008C114.705 12.4592 114.359 12.6917 114.068 12.9847C113.778 13.2778 113.548 13.6256 113.393 14.008C113.238 14.3904 113.16 14.7998 113.164 15.2125V29.1004C113.171 29.9282 113.503 30.7201 114.088 31.3054C114.674 31.8908 115.466 32.2227 116.294 32.2297H116.352C117.178 32.216 117.967 31.8821 118.552 31.2983C119.136 30.7146 119.472 29.9265 119.487 29.1004V20.4563C119.495 20.294 119.514 20.1324 119.545 19.9728C119.694 19.2148 120.276 18.4622 121.293 17.7148C121.778 17.3217 122.338 17.0321 122.94 16.864C123.541 16.6959 124.17 16.6527 124.789 16.7373C125.6 16.886 126.108 16.3034 126.314 14.9893L126.781 12.896C126.817 12.7212 126.813 12.5406 126.77 12.3674C126.727 12.1942 126.646 12.0326 126.533 11.8944C126.421 11.7561 126.278 11.6447 126.117 11.568C125.956 11.4913 125.78 11.4513 125.602 11.4509L125.618 11.4297Z" fill="#FF0000"/>
<path d="M139.993 18.7744L145.306 12.654C145.638 12.2952 145.85 11.8418 145.911 11.3571C145.973 10.8723 145.882 10.3804 145.651 9.94971C145.47 9.49523 145.15 9.10924 144.737 8.84615C144.325 8.58307 143.84 8.45618 143.351 8.48336H143.293C142.925 8.4769 142.561 8.55221 142.227 8.70383C141.892 8.85545 141.596 9.07958 141.359 9.35998L135.727 15.252C135.551 15.465 135.316 15.622 135.052 15.7036C134.797 15.7833 134.67 15.7036 134.67 15.4379V5.99161C134.675 5.55583 134.591 5.12354 134.423 4.72147C134.255 4.31939 134.006 3.95607 133.692 3.65393C133.392 3.33753 133.029 3.08719 132.626 2.91887C132.224 2.75056 131.791 2.66797 131.354 2.67636H131.291C130.855 2.66797 130.421 2.75056 130.019 2.91887C129.616 3.08719 129.253 3.33753 128.953 3.65393C128.64 3.95652 128.392 4.32005 128.225 4.72211C128.058 5.12416 127.975 5.55621 127.981 5.99161V28.6936C127.975 29.129 128.058 29.561 128.225 29.9631C128.392 30.3652 128.64 30.7287 128.953 31.0313C129.253 31.3477 129.616 31.598 130.019 31.7663C130.421 31.9346 130.855 32.0172 131.291 32.0088H131.354C131.791 32.0172 132.224 31.9346 132.626 31.7663C133.029 31.598 133.392 31.3477 133.692 31.0313C134.006 30.7291 134.255 30.3658 134.423 29.9637C134.591 29.5617 134.675 29.1294 134.67 28.6936V23.8323L135.541 22.9929L140.95 30.6487C141.186 31.0791 141.537 31.4355 141.964 31.6785C142.39 31.9214 142.876 32.0412 143.367 32.0248H143.447C143.982 32.0468 144.512 31.9064 144.966 31.6219C145.42 31.3375 145.778 30.9223 145.992 30.4309C146.26 29.9726 146.382 29.4434 146.342 28.9138C146.303 28.3842 146.102 27.8793 145.768 27.4663L139.993 18.7744Z" fill="#FF0000"/>
<path d="M158.686 11.6967C158.484 11.6967 158.282 11.6967 158.075 11.6967C157.868 11.6967 157.671 11.6967 157.464 11.6967C156.08 11.6743 154.705 11.9288 153.42 12.4452C152.136 12.9616 150.967 13.7295 149.984 14.7038C148.99 15.6351 148.202 16.7635 147.67 18.0169C147.137 19.2702 146.872 20.6208 146.892 21.9824C146.873 23.3407 147.139 24.6879 147.671 25.9377C148.204 27.1874 148.991 28.3121 149.984 29.2398C150.966 30.2158 152.135 30.9851 153.419 31.5025C154.704 32.0199 156.079 32.2748 157.464 32.2522C157.671 32.2522 157.873 32.2522 158.075 32.2522C158.277 32.2522 158.484 32.2522 158.686 32.2522C160.776 32.2522 162.816 32.2522 164.807 32.2522C165.34 32.2381 165.854 32.0517 166.273 31.721C166.683 31.3953 166.969 30.94 167.086 30.4299V30.3874C167.178 30.0391 167.184 29.6735 167.103 29.3224C167.021 28.9714 166.855 28.6457 166.618 28.3738C166.408 28.0838 166.129 27.8505 165.806 27.6948C165.484 27.539 165.127 27.4657 164.769 27.4813H158.075C156.935 27.4855 155.821 27.1366 154.888 26.4824C153.968 25.8663 153.264 24.9785 152.874 23.9429H167.288C167.807 23.9558 168.31 23.7651 168.69 23.4116C168.879 23.2391 169.029 23.0288 169.13 22.7944C169.232 22.5601 169.283 22.3069 169.28 22.0515C169.299 20.6885 169.032 19.3366 168.497 18.083C167.962 16.8293 167.17 15.7017 166.172 14.7728C165.196 13.7823 164.03 12.9992 162.743 12.4705C161.457 11.9419 160.077 11.6787 158.686 11.6967ZM152.89 19.9104C153.218 19.1487 153.71 18.4685 154.331 17.9182C154.951 17.3679 155.686 16.961 156.481 16.7262C157.277 16.4915 158.114 16.4346 158.934 16.5598C159.754 16.685 160.537 16.9891 161.226 17.4505C162.129 18.0493 162.831 18.9066 163.239 19.9104H152.89Z" fill="#FF0000"/>
<path d="M181.248 12.5914C181.062 12.3904 180.836 12.2307 180.584 12.1227C180.332 12.0147 180.061 11.9608 179.787 11.9645H177.917V10.2431C177.918 9.5571 177.688 8.89075 177.263 8.35173C176.857 7.80724 176.275 7.42042 175.616 7.25728H175.537C175.077 7.11935 174.59 7.09565 174.119 7.18822C173.647 7.2808 173.206 7.48686 172.832 7.78856C172.446 8.06944 172.133 8.43903 171.919 8.86619C171.706 9.29336 171.598 9.76559 171.605 10.2431V11.9751H170.755C170.477 11.9704 170.201 12.0237 169.945 12.1316C169.689 12.2396 169.458 12.3998 169.267 12.602C169.072 12.7924 168.917 13.0206 168.812 13.2726C168.707 13.5246 168.654 13.7954 168.656 14.0684V14.1056C168.655 14.3838 168.709 14.6596 168.816 14.9166C168.922 15.1736 169.079 15.4067 169.277 15.6022C169.475 15.7977 169.71 15.9517 169.969 16.0551C170.227 16.1584 170.503 16.2091 170.781 16.2042H171.605V22.2078C171.605 25.098 172.053 27.3896 172.949 29.0826C173.396 30.0669 174.126 30.8957 175.045 31.4635C175.965 32.0312 177.033 32.3121 178.113 32.2704C179.144 32.2704 179.937 31.5248 180.493 30.0336C180.714 29.479 180.783 28.876 180.695 28.2857C180.668 28.0181 180.573 27.7618 180.42 27.5407C180.266 27.3196 180.06 27.1409 179.819 27.0212L177.911 26.049V16.1936H179.782C180.335 16.1853 180.863 15.9614 181.254 15.5694C181.645 15.1775 181.868 14.6485 181.875 14.095V14.0578C181.878 13.7832 181.824 13.511 181.716 13.2586C181.608 13.0061 181.449 12.7789 181.248 12.5914Z" fill="#FF0000"/>
<path d="M56.3969 34.6291C56.4203 34.8635 56.3517 35.0978 56.2057 35.2826C56.1349 35.3633 56.0374 35.4158 55.931 35.4305C55.8246 35.4451 55.7165 35.4209 55.6266 35.3623C55.3981 35.171 55.2653 34.5016 55.0103 32.9343C54.7553 31.367 54.5109 29.4012 54.2027 27.0423C54.0504 25.7566 53.8963 24.3823 53.7405 22.9195C53.5846 21.4567 53.4075 19.9921 53.2092 18.5257C52.9011 15.6497 52.6195 12.8161 52.3644 10.0251C52.1094 7.23407 51.8739 4.85389 51.6578 2.88458C51.1265 2.01326 49.5327 0.918807 48.3638 0.541592C47.5085 0.260008 44.682 0.148438 43.986 0.148438H43.7151C43.3088 0.19997 42.9169 0.33181 42.5622 0.536279C42.1973 0.77437 41.9036 1.10663 41.7121 1.49791C40.7348 3.19247 39.9099 4.97041 39.2469 6.8108C38.4004 9.07056 37.5911 11.4844 36.8189 14.0523C36.3833 15.4655 36.1708 16.1774 35.7563 17.6225C35.7425 17.6384 35.732 17.657 35.7256 17.6771C35.7192 17.6972 35.717 17.7184 35.7192 17.7394C35.4854 17.6863 34.8107 17.6172 34.6566 17.5641C34.2422 17.5641 33.0149 18.0582 32.7333 18.6267C32.4578 19.0496 32.317 19.5461 32.3293 20.0506C32.3416 20.5552 32.5066 21.0442 32.8024 21.4531C33.1365 21.8352 33.586 22.0982 34.0828 22.2023C34.2498 22.2285 34.4185 22.2427 34.5875 22.2448C34.4069 23.0151 34.2262 23.7696 34.0562 24.5187C33.5249 26.6438 33.5568 26.7182 33.1743 28.6202C32.7918 30.5222 32.5049 32.1374 32.3242 33.4762C32.3892 33.7911 32.5167 34.0897 32.6992 34.3544C32.8818 34.619 33.1156 34.8443 33.3868 35.017C33.9703 35.5482 34.7234 35.8551 35.512 35.883C35.8968 35.8586 36.2799 35.8125 36.6595 35.7448C37.1536 35.6811 38.9175 35.2135 39.1247 34.8894C39.1247 34.7088 39.215 34.2997 39.316 33.6569C39.4169 33.014 39.5976 32.2702 39.7782 31.3457C40.1129 29.5978 40.3095 29.3906 40.7983 26.8989C41.1064 25.3847 41.4146 24.3699 41.7493 22.8504H43.1413C43.8851 22.8504 45.107 22.8504 45.8508 22.8132C45.9252 24.099 45.9837 24.6302 46.1112 25.916C46.154 26.6132 46.241 27.3071 46.3715 27.9933C46.5805 29.2259 46.8249 30.3806 47.1047 31.4573C47.526 33.2583 48.2442 34.9766 49.2298 36.5418C49.7887 37.3389 50.5116 38.0074 51.3501 38.5022C52.1885 38.997 53.1231 39.3068 54.0911 39.4107C54.2671 39.4358 54.4447 39.4482 54.6224 39.4479C54.8673 39.4491 55.1115 39.4224 55.3503 39.3682C55.6617 39.2549 55.9498 39.0857 56.2004 38.8688C56.7316 38.3375 56.9707 37.1581 56.9707 36.393V36.2761C56.9495 35.4632 56.7582 34.9107 56.3969 34.6291ZM45.718 8.27716C45.6401 10.1013 45.6011 12.3486 45.6011 15.0192C45.6011 16.1243 45.6861 16.3049 45.7127 17.511H45.0964C44.1985 17.5641 43.3378 17.6013 42.5143 17.6279L42.7853 16.5121C43.221 14.4826 43.5344 13.5582 43.9435 11.7837C44.3526 10.0092 44.7404 8.59594 45.0061 7.4696C45.1867 6.87987 45.3302 6.40703 45.4311 6.04575C45.4977 5.83796 45.5943 5.64106 45.718 5.46133C45.819 5.51446 45.819 6.45484 45.718 8.27716Z" fill="#FF0000"/>
<path d="M14.9891 23.2584C14.9041 23.1681 14.851 23.115 14.7978 23.1097C14.7447 23.1044 14.6916 23.1681 14.6066 23.2584C10.8875 27.8647 11.3498 33.3901 14.7872 33.4008C18.2193 33.4008 18.6922 27.8647 14.9678 23.2584" fill="#F29810"/>
<path d="M19.4733 18.4155C19.383 18.5005 19.3298 18.5483 19.3245 18.6068C19.3192 18.6652 19.383 18.713 19.4733 18.798C24.0796 22.5171 29.605 22.0495 29.6103 18.6174C29.6103 15.18 24.0796 14.7124 19.4733 18.4368" fill="#F29810"/>
<path d="M14.6215 13.9275C14.7065 14.0178 14.7596 14.0709 14.8127 14.0762C14.8659 14.0815 14.9243 14.0178 15.0093 13.9275C18.7283 9.32119 18.2608 3.79047 14.8234 3.78516C11.3859 3.78516 10.9131 9.32119 14.6374 13.9275" fill="#F29810"/>
<path d="M10.1423 18.7783C10.2326 18.6933 10.2804 18.6455 10.2858 18.5871C10.2911 18.5286 10.2326 18.4808 10.1423 18.3958C5.53072 14.6715 0 15.1443 0 18.5764C0 22.0139 5.53072 22.4814 10.1423 18.7571" fill="#F29810"/>
<path d="M18.1526 21.7539C18.0623 21.7539 18.0198 21.7539 17.9985 21.7858C17.9985 21.7858 17.9667 21.8549 17.9985 21.9399C18.4023 25.6111 23.7577 30.5255 25.3038 29.0591C26.7701 27.5131 21.8557 22.1524 18.1845 21.7539" fill="#F29810"/>
<path d="M17.9648 15.2418C17.9648 15.3322 17.9648 15.38 17.9967 15.4012C18.0233 15.4278 18.0658 15.4331 18.1561 15.4331C21.8273 15.024 26.7417 9.67394 25.2754 8.11726C23.7293 6.6509 18.3686 11.5653 17.9648 15.2312" fill="#F29810"/>
<path d="M11.4512 15.4374C11.5415 15.4374 11.584 15.4374 11.6105 15.4056C11.6371 15.4056 11.6424 15.3365 11.6424 15.2515C11.2386 11.5803 5.88324 6.66585 4.33188 8.12159C2.86552 9.66764 7.78526 15.0283 11.4512 15.4268" fill="#F29810"/>
<path d="M11.6424 21.9281C11.6424 21.8431 11.6424 21.7953 11.6105 21.7741C11.584 21.7741 11.5415 21.7422 11.4512 21.7422C7.78526 22.146 2.86552 27.5014 4.33188 29.0474C5.87793 30.5138 11.2386 25.5993 11.6424 21.9281Z" fill="#F29810"/>
<path d="M70.2217 2.49976C70.3386 2.49976 70.3811 2.54226 70.3811 2.65914V6.74476C70.3811 6.86164 70.3386 6.90946 70.2217 6.90946H69.972C69.8498 6.90946 69.8126 6.86164 69.8126 6.74476V4.50272C69.8173 4.11068 69.8546 3.71972 69.9242 3.33388H69.8923C69.7567 3.70179 69.5896 4.0573 69.3929 4.39646L68.6066 5.79906C68.5893 5.83484 68.562 5.86488 68.5281 5.8856C68.4942 5.90632 68.455 5.91686 68.4153 5.91595H68.2612C68.2207 5.91723 68.1807 5.90691 68.1459 5.8862C68.1111 5.86549 68.0829 5.83526 68.0647 5.79906L67.2677 4.38052C67.0752 4.04919 66.9185 3.69834 66.8002 3.33388H66.763C66.8304 3.71984 66.8642 4.11092 66.8639 4.50272V6.74476C66.8639 6.86164 66.8268 6.90946 66.6992 6.90946H66.4655C66.3486 6.90946 66.3008 6.86164 66.3008 6.74476V2.65914C66.3008 2.54226 66.3486 2.49976 66.4655 2.49976H66.6833C66.7296 2.49113 66.7775 2.49853 66.819 2.52074C66.8605 2.54296 66.8932 2.57865 66.9118 2.62195L68.3409 5.16151L69.7595 2.62727C69.7752 2.58277 69.8064 2.5454 69.8473 2.52199C69.8883 2.49858 69.9363 2.49069 69.9826 2.49976H70.2217Z" fill="#F29810"/>
<path d="M72.5625 2.65939C72.5625 2.5425 72.605 2.5 72.7272 2.5H72.9982C73.1203 2.5 73.1682 2.5425 73.1682 2.65939V6.745C73.1682 6.86189 73.1203 6.9097 72.9982 6.9097H72.7272C72.605 6.9097 72.5625 6.86189 72.5625 6.745V2.65939Z" fill="#F29810"/>
<path d="M78.5726 2.50134C78.6895 2.50134 78.732 2.54384 78.732 2.66072V6.74634C78.732 6.86322 78.6895 6.91104 78.5726 6.91104H78.2963C78.2637 6.91307 78.2312 6.90623 78.2022 6.89127C78.1732 6.8763 78.1488 6.85376 78.1316 6.82603L76.3624 4.24928C76.2402 4.06363 76.1335 3.86815 76.0436 3.66486L75.8577 3.29296H75.8258C75.8258 3.29296 75.8258 3.44172 75.8843 3.7233C75.9427 4.00488 75.9321 4.25459 75.9321 4.45117V6.74634C75.9321 6.86322 75.8896 6.91104 75.7621 6.91104H75.507C75.3902 6.91104 75.3477 6.86322 75.3477 6.74634V2.66072C75.3477 2.54384 75.3902 2.50134 75.507 2.50134H75.7833C75.8148 2.49723 75.8468 2.50263 75.8752 2.51683C75.9036 2.53103 75.9271 2.55338 75.9427 2.58103L77.6906 5.11528C77.8197 5.30891 77.9351 5.51128 78.036 5.72095L78.2219 6.10879H78.2538C78.2538 6.10879 78.2538 5.94409 78.206 5.66251C78.1754 5.41922 78.1576 5.17449 78.1529 4.92933V2.66072C78.1529 2.54384 78.1901 2.50134 78.3176 2.50134H78.5726Z" fill="#F29810"/>
<path d="M80.9141 2.65939C80.9141 2.5425 80.9566 2.5 81.0735 2.5H81.3497C81.4719 2.5 81.5144 2.5425 81.5144 2.65939V6.745C81.5144 6.86189 81.4719 6.9097 81.3497 6.9097H81.0735C80.9566 6.9097 80.9141 6.86189 80.9141 6.745V2.65939Z" fill="#F29810"/>
<path d="M87.6187 2.5C87.7409 2.5 87.7834 2.5425 87.7834 2.65939V6.745C87.7834 6.86189 87.7409 6.9097 87.6187 6.9097H87.3743C87.2468 6.9097 87.2096 6.86189 87.2096 6.745V4.50296C87.2143 4.11093 87.2516 3.71996 87.3212 3.33412H87.2893C87.1557 3.70197 86.9904 4.0575 86.7952 4.3967L86.0036 5.79931C85.9863 5.83508 85.9591 5.86512 85.9252 5.88584C85.8912 5.90657 85.8521 5.9171 85.8123 5.91619H85.6583C85.6185 5.9171 85.5794 5.90657 85.5455 5.88584C85.5116 5.86512 85.4843 5.83508 85.467 5.79931L84.6648 4.38076C84.4745 4.0483 84.3179 3.69768 84.1972 3.33412H84.16C84.2274 3.72008 84.2612 4.11116 84.261 4.50296V6.745C84.261 6.86189 84.2238 6.9097 84.1016 6.9097H83.8625C83.7456 6.9097 83.7031 6.86189 83.7031 6.745V2.65939C83.7031 2.5425 83.7456 2.5 83.8625 2.5H84.0803C84.2132 2.5 84.2557 2.5 84.3088 2.6222L85.738 5.16176L87.1618 2.62751C87.215 2.52125 87.2521 2.5 87.385 2.5H87.6187Z" fill="#F29810"/>
<path d="M93.5056 6.75021C93.5428 6.85647 93.5056 6.91491 93.3941 6.91491H93.155C92.9531 6.91491 92.9 6.88835 92.8575 6.77147L92.4696 5.7567H90.6367L90.2542 6.77147C90.2063 6.88835 90.1532 6.91491 89.9566 6.91491H89.7388C89.6272 6.91491 89.59 6.85647 89.6272 6.75021L91.2211 2.62741C91.2344 2.584 91.2623 2.54653 91.3 2.52135C91.3378 2.49617 91.3831 2.48483 91.4283 2.48927H91.678C91.7218 2.4848 91.7658 2.49556 91.8026 2.51976C91.8394 2.54396 91.8667 2.5801 91.8799 2.6221L93.5056 6.75021ZM91.6833 3.63155C91.6152 3.44577 91.5775 3.25022 91.5717 3.05244H91.5346V3.13745C91.5205 3.30336 91.4884 3.46724 91.4389 3.62623L90.812 5.26792H92.3155L91.6833 3.63155Z" fill="#F29810"/>
<path d="M97.1612 2.50279C97.3403 2.48393 97.5213 2.50505 97.6912 2.56462C97.8612 2.6242 98.0157 2.72075 98.1438 2.84731C98.2719 2.97386 98.3703 3.12727 98.4319 3.29647C98.4935 3.46566 98.5168 3.64642 98.5001 3.8257C98.5269 4.10696 98.4491 4.38824 98.2815 4.61567C98.1138 4.84311 97.8682 5.00071 97.5916 5.05829C97.7238 5.14557 97.8302 5.26665 97.8997 5.40894L98.5904 6.74248C98.6435 6.85405 98.6223 6.91249 98.5001 6.91249H98.2291C98.0219 6.91249 97.9635 6.88592 97.905 6.76904L97.3419 5.63208C97.2844 5.46732 97.1712 5.3278 97.0218 5.23759C96.8724 5.14738 96.6963 5.11216 96.5237 5.13798H95.8543V6.73185C95.8543 6.84873 95.8118 6.89655 95.6896 6.89655H95.4133C95.2964 6.89655 95.2539 6.84873 95.2539 6.73185V2.66217C95.2539 2.54529 95.2964 2.50279 95.4133 2.50279H97.1612ZM97.1028 3.06064H95.8543V4.58013H97.1028C97.2056 4.59259 97.3098 4.58179 97.4079 4.54852C97.5059 4.51525 97.5952 4.46037 97.6692 4.38793C97.7431 4.3155 97.7999 4.22736 97.8352 4.13004C97.8705 4.03272 97.8835 3.92871 97.8732 3.8257C97.8842 3.72207 97.8718 3.61729 97.8369 3.5191C97.802 3.42091 97.7454 3.33181 97.6715 3.25838C97.5976 3.18494 97.5081 3.12905 97.4096 3.09483C97.3112 3.06061 97.2063 3.04892 97.1028 3.06064Z" fill="#F29810"/>
<path d="M103.792 6.73969C103.845 6.85126 103.792 6.9097 103.702 6.9097H103.431C103.229 6.9097 103.165 6.88314 103.107 6.76625L102.448 5.45928C102.395 5.28777 102.284 5.14035 102.133 5.04311C101.982 4.94587 101.802 4.9051 101.624 4.92799H101.141V6.72906C101.141 6.84595 101.093 6.89376 100.971 6.89376H100.7C100.578 6.89376 100.535 6.84595 100.535 6.72906V2.65939C100.535 2.5425 100.578 2.5 100.7 2.5H100.971C101.093 2.5 101.141 2.5425 101.141 2.65939V4.3967H101.672L102.995 2.63282C103.091 2.51594 103.133 2.5 103.324 2.5H103.633C103.734 2.5 103.781 2.57969 103.712 2.65407L102.278 4.5189C102.438 4.58156 102.583 4.67603 102.706 4.79657C102.828 4.91711 102.925 5.06123 102.99 5.2202L103.792 6.73969Z" fill="#F29810"/>
<path d="M108.288 2.5C108.415 2.5 108.452 2.5425 108.452 2.65939V2.89315C108.452 3.01535 108.415 3.05785 108.288 3.05785H106.258V4.3967H108.033C108.155 4.3967 108.192 4.43921 108.192 4.56672V4.79517C108.192 4.91737 108.155 4.95456 108.033 4.95456H106.258V6.35185H108.383C108.511 6.35185 108.548 6.39966 108.548 6.51655V6.75031C108.548 6.8672 108.511 6.91501 108.383 6.91501H105.812C105.695 6.91501 105.652 6.8672 105.652 6.75031V2.65939C105.652 2.5425 105.695 2.5 105.812 2.5H108.288Z" fill="#F29810"/>
<path d="M113.204 2.5C113.326 2.5 113.369 2.5425 113.369 2.65939V2.89315C113.369 3.01535 113.326 3.05785 113.204 3.05785H112.03V6.745C112.03 6.86189 111.993 6.9097 111.871 6.9097H111.6C111.472 6.9097 111.435 6.86189 111.435 6.745V3.05785H110.261C110.139 3.05785 110.102 3.01535 110.102 2.89315V2.65939C110.102 2.5425 110.139 2.5 110.261 2.5H113.204Z" fill="#F29810"/>
</svg>
