<svg xmlns:xlink="http://www.w3.org/1999/xlink" xmlns="http://www.w3.org/2000/svg" width="65" height="64" viewBox="0 0 65 64" fill="none">
<path d="M19.1665 40H24.4998C24.4998 42.9333 28.2332 45.3333 32.4998 45.3333C36.7665 45.3333 40.4998 42.9333 40.4998 40C40.4998 37.0667 37.8332 36 31.9665 34.6667C26.0998 33.0667 19.1665 31.4667 19.1665 24C19.1665 19.2 23.1665 15.2 28.4998 13.8667V8H36.4998V13.8667C41.8332 15.2 45.8332 19.2 45.8332 24H40.4998C40.4998 21.0667 36.7665 18.6667 32.4998 18.6667C28.2332 18.6667 24.4998 21.0667 24.4998 24C24.4998 26.9333 27.1665 28 33.0332 29.3333C38.6332 30.6667 45.8332 32.5333 45.8332 40C45.8332 44.8 41.8332 48.8 36.4998 50.1333V56H28.4998V50.1333C23.1665 48.8 19.1665 44.8 19.1665 40Z" fill="#004581"/>
<path d="M32.4998 61.3334C48.7002 61.3334 61.8332 48.2004 61.8332 32.0001C61.8332 15.7997 48.7002 2.66675 32.4998 2.66675C16.2995 2.66675 3.1665 15.7997 3.1665 32.0001C3.1665 48.2004 16.2995 61.3334 32.4998 61.3334Z" stroke="#004581" stroke-width="1.2444" stroke-miterlimit="10"/>
</svg>