<svg width="200" height="38" viewBox="0 0 200 38" fill="none" xmlns="http://www.w3.org/2000/svg">
<path d="M25.3415 18.5467C25.1007 18.7672 25.068 18.8121 25.3415 19.0815C31.2079 23.7844 38.2215 23.1639 38.2255 18.7998C38.2296 14.4358 31.2079 13.8234 25.3497 18.5467" fill="#E30613"/>
<path d="M13.7632 19.0766C14.004 18.8521 14.0326 18.8153 13.7632 18.5418C7.91717 13.8103 0.895456 14.4063 0.875044 18.7704C0.854632 23.1345 7.87226 23.7673 13.755 19.0766" fill="#E30613"/>
<path d="M19.8119 24.5893C19.5915 24.3566 19.5466 24.324 19.2731 24.5893C14.562 30.4475 15.1907 37.4652 19.5343 37.4693C23.878 37.4733 24.5189 30.4598 19.8119 24.5893Z" fill="#E30613"/>
<path d="M19.2897 13.0049C19.5101 13.2458 19.5591 13.2703 19.8326 13.0049C24.5274 7.13855 23.915 0.120919 19.5387 0.125002C15.1624 0.129084 14.5704 7.14671 19.2897 13.0049Z" fill="#E30613"/>
<path d="M32.8855 5.46526C30.9096 3.50571 24.0512 9.78851 23.496 14.6547C23.4725 14.6812 23.46 14.7156 23.461 14.751C23.462 14.7864 23.4766 14.82 23.5016 14.8451C23.5266 14.8701 23.5603 14.8846 23.5957 14.8857C23.6311 14.8867 23.6655 14.8742 23.692 14.8507C28.5582 14.2996 34.841 7.44114 32.8814 5.46118" fill="#E30613"/>
<path d="M6.20744 5.45283C4.2479 7.42871 10.5307 14.2871 15.3969 14.8423C15.4575 14.8548 15.52 14.8548 15.5806 14.8423C15.5915 14.7816 15.5915 14.7194 15.5806 14.6586C15.0254 9.79242 8.167 3.50962 6.19112 5.46916" fill="#E30613"/>
<path d="M6.19639 32.1322C8.16818 34.0918 15.0266 27.809 15.5859 22.9428C15.5978 22.8821 15.5978 22.8197 15.5859 22.7591C15.5239 22.747 15.4601 22.747 15.3981 22.7591C10.5319 23.3102 4.2491 30.1686 6.21273 32.1486" fill="#E30613"/>
<path d="M32.8747 32.1412C34.8342 30.1653 28.5514 23.3069 23.6893 22.7517C23.6274 22.739 23.5635 22.739 23.5015 22.7517C23.4891 22.8123 23.4891 22.8748 23.5015 22.9354C24.0526 27.8016 30.911 34.0844 32.891 32.1248" fill="#E30613"/>
<path d="M61.0954 25.4118V29.8045C61.0954 33.7399 58.5847 36.1812 54.0941 36.1812H48.6849C48.0562 36.1812 47.8398 35.9648 47.8398 35.3647V19.8516C47.8398 19.2515 48.0562 19.0352 48.6849 19.0352H54.0941C58.5847 19.0352 61.0954 21.4764 61.0954 25.4118ZM54.1186 21.8602H50.8812V33.3562H54.1186C56.6537 33.3562 58.0785 32.1315 58.0785 29.829V25.3874C58.0785 23.0931 56.6537 21.8602 54.1186 21.8602Z" fill="#E30613"/>
<path d="M77.4483 24.3501C77.4483 26.8608 76.2644 28.5509 74.2599 29.2245C74.5871 29.5146 74.8511 29.869 75.0356 30.2655L77.6891 35.3603C77.93 35.8175 77.8851 36.1768 77.2809 36.1768H75.8807C74.8396 36.1768 74.5294 36.0543 74.2477 35.4501L72.2065 31.3473C71.5778 30.0205 70.9818 29.6572 69.3488 29.6572H67.5607V35.3726C67.5607 35.9768 67.3444 36.189 66.7443 36.189H65.3685C64.7398 36.189 64.5234 35.9727 64.5234 35.3726V19.8595C64.5234 19.2594 64.7398 19.043 65.3685 19.043H72.0309C75.4071 19.0348 77.4483 21.0148 77.4483 24.3501ZM71.7329 21.8598H67.5567V26.8363H71.7329C73.3659 26.8363 74.2681 25.9667 74.2681 24.3501C74.2681 22.7335 73.3863 21.8598 71.7329 21.8598Z" fill="#E30613"/>
<path d="M83.5468 34.5861V34.8066C83.5468 35.9864 83.1876 36.3497 82.0037 36.3497H81.8363C80.6524 36.3497 80.2891 35.9864 80.2891 34.8066V34.5861C80.2891 33.4308 80.6524 33.043 81.8363 33.043H82.0037C83.1876 33.0511 83.5468 33.4308 83.5468 34.5861Z" fill="#E30613"/>
<path d="M99.2434 18.6758C103.661 18.6758 106.126 21.0885 106.126 24.9749V30.2412C106.126 34.1276 103.677 36.5444 99.2434 36.5444C94.8099 36.5444 92.3359 34.1276 92.3359 30.2412V24.9749C92.3359 21.0885 94.8017 18.6758 99.2434 18.6758ZM99.2434 21.5008C96.7572 21.5008 95.3814 22.7255 95.3814 24.9504V30.2575C95.3814 32.5028 96.7572 33.7071 99.2434 33.7071C101.73 33.7071 103.105 32.5028 103.105 30.2575V24.9504C103.105 22.7051 101.705 21.5008 99.2434 21.5008Z" fill="#E30613"/>
<path d="M115.567 18.6758C119.021 18.6758 120.784 19.9291 121.919 22.3214C122.185 22.8766 122.038 23.1664 121.458 23.4318L120.131 24.0115C119.601 24.2523 119.384 24.1543 119.094 23.6032C118.441 22.3254 117.461 21.562 115.567 21.562C113.224 21.562 112.064 22.2887 112.064 23.7828C112.064 25.5219 114.044 25.8241 116.245 26.0772C119.102 26.3915 122.368 27.0937 122.368 31.1271C122.368 34.3358 119.919 36.5362 115.485 36.5362C111.746 36.5362 109.835 35.1115 108.848 32.5028C108.627 31.8986 108.774 31.6333 109.354 31.4373L110.68 30.9556C111.236 30.7637 111.477 30.8821 111.721 31.4618C112.322 32.8866 113.603 33.7071 115.485 33.7071C117.976 33.7071 119.327 32.9356 119.327 31.1965C119.327 29.5309 117.539 29.1553 115.51 28.9512C112.567 28.6368 108.941 28.1796 108.941 23.9543C108.95 20.8966 111.219 18.6758 115.567 18.6758Z" fill="#E30613"/>
<path d="M138.554 19.8314L132.782 35.4996C132.732 35.7211 132.6 35.9152 132.411 36.0414C132.223 36.1676 131.993 36.2163 131.769 36.1773H130.487C129.932 36.1773 129.642 36.0548 129.475 35.5241L123.678 19.8273C123.486 19.2966 123.629 19.0312 124.209 19.0312H125.433C126.446 19.0312 126.736 19.1782 126.932 19.7579L130.455 30.0415C130.717 30.8807 130.927 31.7356 131.083 32.6011H131.23C131.275 32.5317 131.496 31.2009 131.855 30.066L135.358 19.7579C135.549 19.1782 135.839 19.0312 136.856 19.0312H138.015C138.624 19.0353 138.771 19.3007 138.554 19.8314Z" fill="#E30613"/>
<path d="M153.061 36.1792H151.808C150.791 36.1792 150.501 36.0323 150.309 35.4526L149.199 32.3377H142.536L141.402 35.4526C141.206 36.0323 140.916 36.1792 139.903 36.1792H138.793C138.189 36.1792 138.042 35.9139 138.238 35.3832L144.271 19.6864C144.322 19.465 144.456 19.2716 144.645 19.1456C144.834 19.0196 145.064 18.9706 145.288 19.0087H146.566C147.121 19.0087 147.382 19.1312 147.582 19.6619L153.616 35.3832C153.812 35.9057 153.665 36.1792 153.061 36.1792ZM145.941 21.8092H145.77C145.731 22.8037 145.553 23.7878 145.239 24.7322L143.382 29.8515H148.354L146.521 24.7567C146.215 23.7997 146.021 22.8107 145.941 21.8092Z" fill="#E30613"/>
<path d="M159.197 19.8561V33.3565H166.137C166.742 33.3565 166.954 33.5729 166.954 34.173V35.3569C166.954 35.9611 166.737 36.1734 166.137 36.1734H157.009C156.385 36.1734 156.164 35.957 156.164 35.3569V19.8438C156.164 19.2437 156.385 19.0273 157.009 19.0273H158.385C158.977 19.0355 159.197 19.256 159.197 19.8561Z" fill="#E30613"/>
<path d="M182.775 25.4118V29.8045C182.775 33.7399 180.264 36.1812 175.774 36.1812H170.365C169.736 36.1812 169.52 35.9648 169.52 35.3647V19.8516C169.52 19.2515 169.736 19.0352 170.365 19.0352H175.774C180.252 19.0352 182.775 21.4764 182.775 25.4118ZM175.798 21.8602H172.569V33.3562H175.806C178.342 33.3562 179.766 32.1315 179.766 29.829V25.3874C179.746 23.0931 178.321 21.8602 175.786 21.8602H175.798Z" fill="#E30613"/>
<path d="M192.614 18.6758C197.036 18.6758 199.497 21.0885 199.497 24.9749V30.2412C199.497 34.1276 197.048 36.5444 192.614 36.5444C188.181 36.5444 185.711 34.1276 185.711 30.2412V24.9749C185.711 21.0885 188.173 18.6758 192.614 18.6758ZM192.614 21.5008C190.128 21.5008 188.752 22.7255 188.752 24.9504V30.2575C188.752 32.5028 190.128 33.7071 192.614 33.7071C195.1 33.7071 196.48 32.5028 196.48 30.2575V24.9504C196.48 22.7051 195.08 21.5008 192.614 21.5008Z" fill="#E30613"/>
<path d="M57.444 2.02551V3.01346C57.444 3.51559 57.2603 3.69521 56.7378 3.69521H50.5897V7.39386H55.7539C56.2764 7.39386 56.4561 7.57349 56.4561 8.07562V9.06355C56.4561 9.5861 56.2764 9.74532 55.7539 9.74532H50.5897V14.9299C50.5897 15.4321 50.4101 15.6158 49.9038 15.6158H48.7608C48.2382 15.6158 48.0586 15.4321 48.0586 14.9299V2.02551C48.0586 1.52338 48.2382 1.34375 48.7608 1.34375H56.7378C57.2603 1.356 57.444 1.53563 57.444 2.02551Z" fill="#E30613"/>
<path d="M69.8041 15.6273H68.759C67.9139 15.6273 67.673 15.5048 67.5138 15.0231L66.5912 12.4308H61.0432L60.0961 15.0231C59.9369 15.5048 59.6879 15.6273 58.8714 15.6273H57.9488C57.4466 15.6273 57.3242 15.4028 57.4834 14.9619L62.5088 1.89821C62.551 1.71408 62.6621 1.55309 62.8192 1.44832C62.9764 1.34354 63.1677 1.30294 63.3539 1.33483H64.3867C64.848 1.33483 65.0685 1.4369 65.2318 1.8778L70.2531 14.9619C70.4287 15.4028 70.3062 15.6273 69.8041 15.6273ZM63.8764 3.65772H63.7335C63.7058 4.49122 63.5573 5.31629 63.2926 6.10715L61.7454 10.3692H65.8849L64.3581 6.10715C64.1083 5.3108 63.9467 4.48938 63.8764 3.65772Z" fill="#E30613"/>
<path d="M83.1641 5.77723C83.1641 7.86742 82.1802 9.27585 80.5105 9.83922C80.7816 10.0797 81.001 10.3728 81.1555 10.7006L83.3641 14.9422C83.5641 15.326 83.5274 15.628 83.0212 15.628H81.8577C80.9922 15.628 80.7309 15.526 80.4901 15.0238L78.804 11.6069C78.2815 10.5006 77.7957 10.1985 76.4118 10.1985H74.9217V14.9422C74.9217 15.4443 74.7421 15.628 74.24 15.628H73.0928C72.5703 15.628 72.3906 15.4443 72.3906 14.9422V2.02551C72.3906 1.52338 72.5703 1.34375 73.0928 1.34375H78.6408C81.4209 1.356 83.1641 3.00529 83.1641 5.77723ZM78.3999 3.70746H74.9217V7.84701H78.3999C79.7471 7.84701 80.5105 7.12442 80.5105 5.77723C80.5105 4.43004 79.7512 3.70746 78.3836 3.70746H78.3999Z" fill="#E30613"/>
<path d="M99.4653 2.02551V14.9299C99.4653 15.4321 99.3061 15.6158 98.7836 15.6158H97.7589C97.2363 15.6158 97.073 15.4321 97.073 14.9299V8.80636C97.0885 7.45905 97.2514 6.11748 97.5588 4.80562H97.416C96.9956 6.08174 96.4485 7.31258 95.783 8.47977L93.8153 11.958C93.7526 12.111 93.6429 12.2402 93.502 12.3268C93.3611 12.4133 93.1963 12.4529 93.0315 12.4397H92.3864C92.2201 12.4638 92.0505 12.4288 91.9073 12.3407C91.7641 12.2527 91.6563 12.1173 91.6026 11.958L89.5941 8.45937C88.9148 7.31016 88.3943 6.07419 88.0469 4.78522H87.9081C88.1863 6.10733 88.3232 7.45529 88.3163 8.80636V14.9299C88.3163 15.4321 88.1571 15.6158 87.6345 15.6158H86.667C86.1445 15.6158 85.9648 15.4321 85.9648 14.9299V2.02551C85.9648 1.52338 86.1445 1.34375 86.667 1.34375H87.5529C88.1163 1.34375 88.2959 1.44581 88.5163 1.8663L92.6926 9.37382L96.873 1.91529C96.9357 1.72803 97.0641 1.56981 97.2345 1.46998C97.4049 1.37015 97.6057 1.33546 97.7997 1.37233H98.7836C99.3061 1.356 99.4653 1.53563 99.4653 2.02551Z" fill="#E30613"/>
<path d="M113.918 15.6272H112.873C112.028 15.6272 111.787 15.5047 111.624 15.023L110.701 12.4307H105.153L104.21 15.023C104.047 15.5047 103.802 15.6272 102.985 15.6272H102.059C101.557 15.6272 101.438 15.4027 101.597 14.9618L106.623 1.89813C106.664 1.71433 106.774 1.55339 106.931 1.44855C107.087 1.34371 107.278 1.30297 107.464 1.33476H108.529C108.995 1.33476 109.215 1.43682 109.374 1.87772L114.4 14.9618C114.539 15.4027 114.42 15.6272 113.918 15.6272ZM107.986 3.65764H107.848C107.817 4.49089 107.669 5.31563 107.407 6.10707L105.859 10.3691H109.999L108.476 6.10707C108.223 5.31131 108.058 4.48977 107.986 3.65764Z" fill="#E30613"/>
<path d="M121.474 1.05078C124.425 1.05078 126.177 2.23876 126.94 4.40651C127.12 4.89231 126.997 5.11277 126.532 5.29239L125.43 5.67614C124.944 5.81494 124.744 5.7537 124.564 5.2679C124.123 4.04318 123.156 3.41858 121.49 3.41858C119.421 3.41858 118.273 4.42284 118.273 6.27625V10.7179C118.273 12.5672 119.421 13.5756 121.49 13.5756C123.176 13.5756 124.123 12.9346 124.564 11.7099C124.764 11.2037 124.973 11.1057 125.446 11.3017L126.532 11.6854C127.014 11.865 127.136 12.0936 126.977 12.5672C126.214 14.739 124.462 15.9433 121.49 15.9433C117.792 15.9433 115.742 13.9348 115.742 10.6975V6.27625C115.726 3.06341 117.775 1.05078 121.474 1.05078Z" fill="#E30613"/>
<path d="M130.195 1.35547H131.338C131.84 1.35547 132.019 1.5351 132.019 2.03723V14.9417C132.019 15.4438 131.84 15.6275 131.338 15.6275H130.19C129.668 15.6275 129.488 15.4438 129.488 14.9417V2.02499C129.492 1.5351 129.672 1.35547 130.195 1.35547Z" fill="#E30613"/>
<path d="M146.441 15.6279H145.396C144.55 15.6279 144.31 15.5054 144.171 15.0237L143.244 12.4314H137.696L136.753 15.0237C136.59 15.5054 136.345 15.6279 135.528 15.6279H134.602C134.1 15.6279 133.981 15.4034 134.14 14.9625L139.166 1.89881C139.207 1.71418 139.318 1.55258 139.475 1.44764C139.633 1.3427 139.825 1.30251 140.011 1.33544H141.072C141.538 1.33544 141.758 1.43751 141.917 1.8784L146.943 14.9625C147.073 15.4034 146.955 15.6279 146.441 15.6279ZM140.521 3.65832H140.382C140.352 4.49157 140.204 5.31631 139.941 6.10775L138.394 10.3698H142.534L141.007 6.10775C140.755 5.31183 140.592 4.4903 140.521 3.65832Z" fill="#E30613"/>
<path d="M153.73 1.05078C156.587 1.05078 158.069 2.09587 159.037 4.08808C159.257 4.54939 159.135 4.79026 158.653 5.01071L157.547 5.49242C157.106 5.69246 156.926 5.6149 156.685 5.15359C156.142 4.08809 155.338 3.46348 153.75 3.46348C151.799 3.46348 150.835 4.06767 150.835 5.3128C150.835 6.75796 152.468 7.01923 154.313 7.22335C156.685 7.48463 159.416 8.06433 159.416 11.4241C159.416 14.094 157.375 15.9148 153.701 15.9148C150.586 15.9148 148.998 14.7309 148.174 12.559C147.994 12.0569 148.112 11.8365 148.582 11.6772L149.688 11.269C150.153 11.1098 150.354 11.2078 150.554 11.6772C151.056 12.8611 152.121 13.5429 153.689 13.5429C155.759 13.5429 156.885 12.902 156.885 11.4527C156.885 10.0688 155.395 9.76668 153.709 9.58298C151.26 9.32579 148.243 8.94204 148.243 5.42302C148.223 2.9001 150.117 1.05078 153.73 1.05078Z" fill="#E30613"/>
</svg>
