<svg xmlns:xlink="http://www.w3.org/1999/xlink" xmlns="http://www.w3.org/2000/svg" width="50" height="48" viewBox="0 0 50 48" fill="none">
<path d="M9.674 20.773C13.5434 28.3415 19.7068 34.4927 27.283 38.347L33.162 32.48C33.5051 32.1371 33.935 31.8939 34.4056 31.7764C34.8763 31.6589 35.37 31.6716 35.834 31.813C38.93 32.83 42.1693 33.3432 45.428 33.333C45.7788 33.3323 46.1263 33.4008 46.4506 33.5345C46.7749 33.6682 47.0697 33.8645 47.3181 34.1122C47.5666 34.3599 47.7638 34.6541 47.8984 34.978C48.0331 35.3019 48.1026 35.6492 48.103 36V45.333C48.1026 45.6836 48.0332 46.0308 47.8986 46.3545C47.7641 46.6783 47.5671 46.9724 47.3189 47.2201C47.0706 47.4678 46.7761 47.6641 46.452 47.7979C46.1279 47.9317 45.7806 48.0004 45.43 48C39.4704 48.0064 33.5679 46.839 28.0595 44.5642C22.5511 42.2895 17.5447 38.9521 13.3261 34.7425C9.1075 30.5329 5.75937 25.5337 3.47288 20.0301C1.18639 14.5266 0.00630007 8.6266 0 2.667C0.000795256 1.95905 0.282723 1.28039 0.783792 0.780258C1.28486 0.280127 1.96404 -0.000529999 2.672 7.51407e-07H12.025C12.733 -0.000529999 13.4121 0.280127 13.9132 0.780258C14.4143 1.28039 14.6962 1.95905 14.697 2.667C14.6923 5.90136 15.2065 9.11552 16.22 12.187C16.3619 12.6502 16.3747 13.1434 16.257 13.6134C16.1393 14.0834 15.8955 14.5123 15.552 14.854L9.674 20.773ZM50 4.56L46.205 0.773001L32.069 14.907L25.949 8.774L22.154 12.56L32.068 22.427L50 4.56Z" fill="#004581"/>
</svg>