<svg width="234" height="94" viewBox="0 0 234 94" fill="none" xmlns="http://www.w3.org/2000/svg">
<path d="M51.3633 58.8093C50.3287 59.3245 49.2105 59.651 48.0613 59.7735C47.0744 59.8839 46.0825 59.9434 45.0895 59.9518C43.5351 60.0037 42.0114 59.5121 40.7804 58.5617C39.6136 57.6371 39.1734 56.1061 39.4596 53.9686C39.7171 51.9742 40.4876 50.5488 41.771 49.6925C43.1831 48.7851 44.7788 48.2021 46.4433 47.9854C47.4339 47.8533 48.0448 47.7476 48.4773 47.7014C50.6016 47.413 51.7254 46.7944 51.8487 45.8457C51.8823 45.6937 51.8848 45.5364 51.8561 45.3834C51.8274 45.2305 51.7681 45.0848 51.6818 44.9553C51.5954 44.8258 51.4838 44.7151 51.3536 44.6297C51.2234 44.5444 51.0773 44.4863 50.9241 44.4588C50.2834 44.2525 49.6159 44.1412 48.9429 44.1286C48.3256 44.1207 47.7115 44.2178 47.1268 44.4159C46.5837 44.6027 46.1278 44.9822 45.8456 45.4824H41.0412C41.4124 44.0209 42.284 42.7357 43.5045 41.8502C44.9288 40.7496 46.8274 40.1992 49.2005 40.1992C51.8619 40.1992 53.7991 40.6505 55.012 41.553C56.2668 42.5018 56.783 43.8314 56.5606 45.5419L55.7252 52.0237C55.4809 53.9235 54.9449 55.4083 54.1172 56.4781C53.3974 57.4579 52.453 58.2506 51.3633 58.7895V58.8093ZM51.3633 50.0293C50.4316 50.4349 49.4614 50.7458 48.4674 50.9572L46.7834 51.3138C45.8952 51.5515 45.1918 51.7695 44.8022 52.2383C44.4247 52.6841 44.1819 53.2281 44.1022 53.8068C44.0436 54.1052 44.0508 54.4129 44.1232 54.7083C44.1957 55.0036 44.3316 55.2797 44.5215 55.5172C44.898 55.8981 45.4912 56.0874 46.3013 56.0852C47.4995 56.1304 48.671 55.7238 49.5835 54.946C50.4675 54.1282 51.0169 53.0117 51.1255 51.8124L51.3633 50.0293Z" fill="#00539B"/>
<path d="M111.449 58.8093C110.415 59.325 109.297 59.6515 108.147 59.7735C107.161 59.884 106.169 59.9435 105.176 59.9518C103.62 60.003 102.096 59.5116 100.863 58.5617C99.7009 57.6371 99.2607 56.1061 99.5424 53.9686C99.8 51.9742 100.565 50.5488 101.837 49.6925C103.239 48.764 104.84 48.1791 106.51 47.9854C107.272 47.8863 108.111 47.7476 108.544 47.7014C110.668 47.413 111.793 46.7944 111.918 45.8456C111.951 45.6935 111.953 45.5363 111.923 45.3835C111.894 45.2306 111.834 45.0852 111.748 44.9559C111.661 44.8266 111.55 44.7159 111.42 44.6305C111.29 44.5451 111.144 44.4867 110.99 44.4588C110.35 44.2525 109.682 44.1412 109.009 44.1286C108.391 44.1207 107.776 44.2178 107.19 44.4159C106.648 44.6029 106.193 44.9824 105.912 45.4824H101.127C101.5 44.0215 102.371 42.7367 103.591 41.8502C105.013 40.7496 106.911 40.1992 109.287 40.1992C111.948 40.1992 113.884 40.6505 115.095 41.553C116.352 42.5018 116.869 43.8314 116.647 45.5419L115.811 52.0237C115.567 53.9235 115.031 55.4083 114.203 56.4781C113.485 57.4588 112.54 58.2517 111.449 58.7895V58.8093ZM111.449 50.0293C110.518 50.4344 109.547 50.7453 108.554 50.9572L106.866 51.3138C105.981 51.5515 105.271 51.7695 104.885 52.2383C104.51 52.6859 104.266 53.2289 104.182 53.8068C104.124 54.1055 104.131 54.4132 104.204 54.7086C104.277 55.004 104.414 55.28 104.604 55.5172C104.981 55.8981 105.574 56.0874 106.384 56.0852C107.582 56.1304 108.754 55.7238 109.666 54.946C110.55 54.1282 111.1 53.0117 111.208 51.8124L111.449 50.0293Z" fill="#00539B"/>
<path d="M130.941 53.757H134.504C133.827 55.6187 132.573 57.2154 130.925 58.3137C129.215 59.4388 127.202 60.0148 125.156 59.9648C122.448 59.9648 120.447 59.0842 119.153 57.3231C117.856 55.6127 117.416 53.167 117.832 49.9861C118.222 46.946 119.263 44.5708 120.956 42.8604C122.702 41.0993 124.928 40.2188 127.636 40.2188C130.484 40.2188 132.583 41.0729 133.933 42.7811C134.669 43.8685 135.142 45.1118 135.316 46.4133H130.32C130.192 46.0262 129.998 45.6642 129.746 45.3435C129.213 44.6831 128.378 44.3529 127.24 44.3529C126.25 44.3319 125.289 44.6858 124.549 45.3435C123.569 46.2944 122.939 47.8618 122.66 50.0455C122.38 52.2292 122.608 53.7702 123.343 54.6683C123.858 55.4311 124.74 55.8108 125.985 55.8108C126.726 55.8269 127.458 55.6554 128.115 55.3122C128.272 55.2594 128.417 55.1751 128.541 55.0646L128.98 54.6683C129.173 54.4569 129.389 54.2675 129.624 54.1037C130.013 53.8441 130.477 53.7189 130.945 53.7471" fill="#00539B"/>
<path d="M137.924 57.8834C136.995 56.9492 136.4 55.7355 136.23 54.4295C135.988 52.9327 135.968 51.4084 136.17 49.9057C136.349 48.5859 136.695 47.2943 137.201 46.0622C137.67 44.8603 138.381 43.7678 139.291 42.8526C140.654 41.4537 142.454 40.5615 144.392 40.3233C146.141 40.0412 147.932 40.2001 149.603 40.7856C150.422 41.1105 151.161 41.6103 151.767 42.2502C152.374 42.8901 152.833 43.6547 153.113 44.4904C153.721 46.0622 153.886 47.8849 153.618 49.9784C153.469 51.3247 153.13 52.6432 152.611 53.8946C152.193 54.8939 151.638 55.8298 150.96 56.6748C149.76 58.152 148.096 59.1806 146.238 59.5938C144.688 60.0221 143.055 60.0584 141.487 59.6995C139.938 59.3462 138.749 58.7419 137.911 57.8834H137.924ZM142.946 45.3358C141.806 46.4364 141.145 48.0632 140.965 50.2161C140.784 52.369 140.992 53.8769 141.589 54.7399C141.932 55.2003 142.413 55.5384 142.963 55.7041C143.656 55.964 144.416 55.9883 145.125 55.7734C145.998 55.48 146.757 54.9184 147.292 54.1686C147.972 53.3167 148.458 51.9398 148.751 50.0378C148.971 48.3274 148.861 47.0451 148.421 46.191C148.103 45.441 147.501 44.8473 146.747 44.54C146.056 44.303 145.308 44.2903 144.61 44.5037C144.001 44.6523 143.431 44.9317 142.94 45.3225" fill="#00539B"/>
<path d="M170.557 65.5881C170.47 66.2533 170.138 66.8621 169.626 67.2952C169.137 67.7529 168.493 68.0078 167.823 68.0084H165.399L167.688 48.837C168.128 45.5152 169.395 43.2478 171.488 42.0349C173.479 40.8547 175.749 40.2277 178.063 40.2188C179.264 40.2174 180.454 40.4414 181.573 40.8792C182.629 41.2544 183.549 41.9376 184.214 42.8405C185.403 44.6919 185.809 47.0671 185.433 49.9663C185.047 52.9579 184.023 55.3794 182.359 57.2307C180.699 59.0358 178.754 59.9383 176.524 59.9383C175.47 59.9683 174.423 59.7489 173.47 59.2978C172.577 58.8101 171.878 58.0318 171.488 57.092L170.557 65.5881ZM180.48 50.1908C180.721 48.3351 180.546 46.9119 179.965 45.9147C179.383 44.9175 178.423 44.4189 177.092 44.4189C176.482 44.4081 175.878 44.5374 175.326 44.7967C174.774 45.056 174.289 45.4385 173.909 45.9147C173.123 46.8162 172.611 48.2426 172.36 50.1908C172.124 51.9937 172.306 53.3475 172.905 54.2523C173.486 55.2451 174.443 55.7426 175.774 55.7448C176.373 55.7498 176.964 55.6179 177.504 55.3592C178.044 55.1006 178.517 54.7219 178.888 54.2523C179.729 53.2507 180.26 51.8969 180.48 50.1908Z" fill="#00539B"/>
<path d="M25.2875 59.5949H22.7812L25.5979 37.6432C25.6878 36.9338 26.0415 36.2843 26.5885 35.8238C27.108 35.3411 27.7912 35.0733 28.5003 35.0742H43.7457L43.1976 39.2942H30.3759L29.6924 44.5774H39.2385L39.0271 46.2284C38.9364 46.9366 38.5828 47.5848 38.0365 48.0445C37.5161 48.5254 36.8332 48.792 36.1247 48.7908H29.1508L28.0843 57.059V57.1613C27.9955 57.8285 27.6625 58.4391 27.1498 58.8751C26.6587 59.3284 26.0152 59.5806 25.3469 59.5817L25.2875 59.5949Z" fill="#00539B"/>
<path d="M59.3297 59.5947H56.7607L57.9462 50.4053C58.117 48.7731 58.6001 47.1891 59.3693 45.7395C60.0172 44.5488 60.9191 43.515 62.0109 42.7116C63.0285 41.9877 64.17 41.4561 65.379 41.1431C66.6201 40.8133 67.8987 40.6457 69.1829 40.6445H69.8961L69.2357 45.7032H67.5847C66.2078 45.7032 65.1412 46.0334 64.395 46.6938C63.6487 47.3542 63.1765 48.4009 62.9916 49.8307L62.077 57.148V57.1645C61.9883 57.8307 61.6553 58.4403 61.1425 58.8749C60.6537 59.3326 60.0093 59.5875 59.3396 59.5881L59.3297 59.5947Z" fill="#00539B"/>
<path d="M156.741 59.5947H154.169L155.354 50.4053C155.525 48.7731 156.008 47.1891 156.778 45.7395C157.425 44.5488 158.327 43.515 159.419 42.7116C160.437 41.9877 161.578 41.4561 162.787 41.1431C164.029 40.8134 165.309 40.6458 166.594 40.6445H167.304L166.644 45.7032H164.993C163.617 45.7032 162.554 46.0334 161.803 46.6938C161.05 47.3542 160.585 48.4009 160.4 49.8307L159.485 57.148V57.1645C159.399 57.8309 159.067 58.441 158.554 58.8749C158.065 59.3326 157.421 59.5875 156.751 59.5881L156.741 59.5947Z" fill="#00539B"/>
<path d="M92.322 59.5894L93.874 47.4875C94.0193 46.345 93.7848 45.5063 93.1607 44.9945C92.5445 44.4704 91.7572 44.1907 90.9484 44.2086C90.0804 44.212 89.2353 44.4868 88.5313 44.9945C87.7752 45.5162 87.3228 46.345 87.1775 47.4875L87.0454 48.4781L85.9293 57.1492C85.8298 57.8095 85.5015 58.4139 85.0018 58.8569C84.5021 59.2998 83.8628 59.5532 83.1953 59.5729H80.7122L82.1452 48.4616L82.274 47.471C82.4193 46.3285 82.1816 45.4898 81.5608 44.978C80.9445 44.4539 80.1573 44.1742 79.3484 44.1921C78.4918 44.1902 77.6577 44.4659 76.971 44.978C76.2346 45.4997 75.7955 46.3285 75.6502 47.471L74.4053 57.136C74.3173 57.8025 73.9841 58.4122 73.4709 58.8464C72.9815 59.3029 72.3372 59.5566 71.668 59.5563H69.0957L70.5321 48.4451C70.9459 45.2113 72.0675 43.0496 73.8968 41.96C75.6563 40.8882 77.657 40.2761 79.715 40.1802C80.7796 40.1766 81.8411 40.2963 82.8783 40.5368C83.8771 40.7663 84.7968 41.2575 85.543 41.96C86.3413 41.338 87.2599 40.8883 88.2407 40.6391C89.2522 40.3787 90.288 40.2238 91.3314 40.1769C93.3089 40.1473 95.2481 40.7234 96.8887 41.8279C98.5023 42.9285 99.0966 45.1376 98.6718 48.455L97.7274 55.7557L97.5458 57.1327C97.4589 57.7988 97.1269 58.4086 96.6146 58.8431C96.1253 59.2996 95.4809 59.5533 94.8117 59.553L92.322 59.5894Z" fill="#00539B"/>
<path d="M202.983 37.3932C202.831 37.5319 202.811 37.5649 202.983 37.7234C206.74 40.7349 211.238 40.3353 211.238 37.5418C211.238 34.7483 206.737 34.3686 202.983 37.3932Z" fill="white"/>
<path d="M195.559 37.733C195.711 37.5877 195.73 37.5646 195.559 37.4028C191.814 34.3716 187.304 34.7612 187.304 37.5481C187.304 40.335 191.791 40.7378 195.559 37.733Z" fill="white"/>
<path d="M199.44 41.2765C199.298 41.1279 199.272 41.1048 199.11 41.2765C196.092 45.0309 196.468 49.5315 199.278 49.5315C202.088 49.5315 202.458 45.0243 199.44 41.2765Z" fill="white"/>
<path d="M199.113 33.8449C199.255 34.0001 199.285 34.0166 199.443 33.8449C202.451 30.0905 202.048 25.5898 199.255 25.5898C196.461 25.5898 196.091 30.0938 199.113 33.8449Z" fill="white"/>
<path d="M207.817 29.0128C206.549 27.758 202.157 31.7799 201.804 34.897C201.796 34.9362 201.796 34.9766 201.804 35.0158C201.844 35.0234 201.886 35.0234 201.926 35.0158C205.053 34.6691 209.071 30.2775 207.817 29.0128Z" fill="white"/>
<path d="M190.73 29.0059C189.475 30.2706 193.497 34.6623 196.614 35.0156C196.63 35.0326 196.653 35.0424 196.677 35.0427C196.701 35.043 196.724 35.0339 196.741 35.0172C196.758 35.0006 196.768 34.9778 196.768 34.954C196.768 34.9302 196.759 34.9072 196.743 34.8901C196.389 31.773 191.994 27.7346 190.73 29.0059Z" fill="white"/>
<path d="M190.724 46.094C191.989 47.3488 196.381 43.3269 196.734 40.2098C196.742 40.1706 196.742 40.1302 196.734 40.091C196.695 40.0843 196.655 40.0843 196.615 40.091C193.498 40.4377 189.47 44.8293 190.724 46.094Z" fill="white"/>
<path d="M207.807 46.0974C209.065 44.8328 205.04 40.4411 201.923 40.0878C201.883 40.0801 201.843 40.0801 201.804 40.0878C201.796 40.127 201.796 40.1674 201.804 40.2066C202.15 43.3303 206.542 47.3555 207.807 46.0974Z" fill="white"/>
<path d="M202.983 37.3932C202.831 37.5319 202.811 37.5649 202.983 37.7234C206.74 40.7349 211.238 40.3353 211.238 37.5418C211.238 34.7483 206.737 34.3686 202.983 37.3932Z" fill="#00B2DD"/>
<path d="M195.559 37.733C195.711 37.5877 195.73 37.5646 195.559 37.4028C191.814 34.3716 187.304 34.7612 187.304 37.5481C187.304 40.335 191.791 40.7378 195.559 37.733Z" fill="#F7941D"/>
<path d="M199.44 41.2765C199.298 41.1279 199.272 41.1048 199.11 41.2765C196.092 45.0309 196.468 49.5315 199.278 49.5315C202.088 49.5315 202.458 45.0243 199.44 41.2765Z" fill="#FFD200"/>
<path d="M199.113 33.8449C199.255 34.0001 199.285 34.0166 199.443 33.8449C202.451 30.0905 202.048 25.5898 199.255 25.5898C196.461 25.5898 196.091 30.0938 199.113 33.8449Z" fill="#00539B"/>
<path d="M207.817 29.0128C206.549 27.758 202.157 31.7799 201.804 34.897C201.796 34.9362 201.796 34.9766 201.804 35.0158C201.844 35.0234 201.886 35.0234 201.926 35.0158C205.053 34.6691 209.071 30.2775 207.817 29.0128Z" fill="#00539B"/>
<path d="M190.73 29.0059C189.475 30.2706 193.497 34.6623 196.614 35.0156C196.63 35.0326 196.653 35.0424 196.677 35.0427C196.701 35.043 196.724 35.0339 196.741 35.0172C196.758 35.0006 196.768 34.9778 196.768 34.954C196.768 34.9302 196.759 34.9072 196.743 34.8901C196.389 31.773 191.994 27.7346 190.73 29.0059Z" fill="#F7941D"/>
<path d="M190.724 46.094C191.989 47.3488 196.381 43.3269 196.734 40.2098C196.742 40.1706 196.742 40.1302 196.734 40.091C196.695 40.0843 196.655 40.0843 196.615 40.091C193.498 40.4377 189.47 44.8293 190.724 46.094Z" fill="#FFD200"/>
<path d="M207.807 46.0974C209.065 44.8328 205.04 40.4411 201.923 40.0878C201.883 40.0801 201.843 40.0801 201.804 40.0878C201.796 40.127 201.796 40.1674 201.804 40.2066C202.15 43.3303 206.542 47.3555 207.807 46.0974Z" fill="#00B2DD"/>
</svg>
