<svg xmlns:xlink="http://www.w3.org/1999/xlink" xmlns="http://www.w3.org/2000/svg" width="65" height="55" viewBox="0 0 65 55" fill="none">
<path d="M59.9054 28.1848L64.5 32.8599L43.0683 54.7097L31.6804 43.105L36.275 38.4299L43.0693 45.3265L59.9054 28.1848ZM26.7565 0.00412972C29.3854 -0.0226743 31.963 0.7324 34.1619 2.17347C36.3608 3.61453 38.0818 5.67657 39.1065 8.09773C40.1311 10.5189 40.4131 13.1899 39.9166 15.7717C39.4201 18.3534 38.1675 20.7294 36.318 22.5978C34.4685 24.4663 32.1054 25.7429 29.5288 26.2656C26.9523 26.7883 24.2785 26.5335 21.847 25.5336C19.4156 24.5336 17.3361 22.8337 15.8728 20.6495C14.4094 18.4654 13.6282 15.8956 13.6283 13.2666C13.619 11.5334 13.9513 9.81543 14.6061 8.2107C15.2608 6.60596 16.2253 5.14593 17.4444 3.91399C18.6635 2.68204 20.1134 1.7023 21.7112 1.03074C23.3089 0.35917 25.0234 0.00892324 26.7565 0V0.00412972ZM26.7565 6.63123C25.4421 6.61772 24.1533 6.99511 23.0538 7.71548C21.9543 8.43585 21.0936 9.4667 20.5811 10.6772C20.0685 11.8876 19.9272 13.2231 20.1751 14.514C20.4231 15.8049 21.049 16.993 21.9734 17.9275C22.8979 18.862 24.0792 19.5007 25.3673 19.7625C26.6555 20.0243 27.9924 19.8975 29.2083 19.398C30.4242 18.8986 31.4643 18.0491 32.1965 16.9574C32.9287 15.8657 33.32 14.5811 33.3206 13.2666C33.3253 12.4001 33.1591 11.5412 32.8317 10.739C32.5043 9.9367 32.022 9.20683 31.4124 8.59102C30.8029 7.97521 30.0779 7.48553 29.279 7.14997C28.4802 6.81442 27.623 6.63955 26.7565 6.63535V6.63123ZM26.7565 29.8457C29.4139 29.8931 32.0615 30.1816 34.6667 30.7076L29.1854 36.2446L26.7565 36.1414C17.0089 36.1414 6.73587 40.9827 6.73587 43.104V46.751H27.0848L33.3206 53.0477H0.5V43.105C0.5 34.2854 17.9937 29.8426 26.7565 29.8426V29.8457Z" fill="#004581"/>
</svg>