<svg xmlns:xlink="http://www.w3.org/1999/xlink" xmlns="http://www.w3.org/2000/svg" width="54" height="60" viewBox="0 0 54 60" fill="none">
<path d="M8 0.666748V6.00008H5.33333C2.37333 6.00008 0 8.37341 0 11.3334V48.6667C0 51.6001 2.37333 54.0001 5.33333 54.0001H21.6C24.96 57.3067 29.5733 59.3334 34.6667 59.3334C44.9867 59.3334 53.3333 50.9867 53.3333 40.6667C53.3333 35.5734 51.3067 30.9601 48 27.6001V11.3334C48 8.40008 45.6267 6.00008 42.6667 6.00008H40V0.666748H34.6667V6.00008H13.3333V0.666748H8ZM5.33333 11.3334H42.6667V16.6667H5.33333V11.3334ZM5.33333 22.0001H42.6667V23.7867C40.24 22.6401 37.52 22.0001 34.6667 22.0001C24.3467 22.0001 16 30.3467 16 40.6667C16 43.5201 16.64 46.2401 17.7867 48.6667H5.33333V22.0001ZM34.6667 27.7334C41.8133 27.7334 47.6 33.5201 47.6 40.6667C47.6 47.8134 41.8133 53.6001 34.6667 53.6001C27.52 53.6001 21.7333 47.8134 21.7333 40.6667C21.7333 33.5201 27.52 27.7334 34.6667 27.7334ZM32 32.6667V42.5067L40.5067 47.4134L42.5067 43.9467L36 40.1867V32.6667H32Z" fill="#004581"/>
</svg>